<?xml version="1.0" encoding="UTF-8"?>
<svg width="1240px" height="300px" viewBox="0 0 1240 300" version="1.1" xmlns="http://www.w3.org/2000/svg" xmlns:xlink="http://www.w3.org/1999/xlink">
    <!-- Generator: Sketch 55.1 (78136) - https://sketchapp.com -->
    <title>Custom Preset</title>
    <desc>Created with Sketch.</desc>
    <defs>
        <linearGradient x1="0%" y1="50.0025809%" x2="113.816993%" y2="50.0025809%" id="linearGradient-1">
            <stop stop-color="#F59D2A" offset="0%"></stop>
            <stop stop-color="#F59A2C" offset="1%"></stop>
            <stop stop-color="#EE6A4B" offset="21%"></stop>
            <stop stop-color="#EA4D5F" offset="36%"></stop>
            <stop stop-color="#E94266" offset="45%"></stop>
            <stop stop-color="#D54F76" offset="54%"></stop>
            <stop stop-color="#A0719F" offset="74%"></stop>
            <stop stop-color="#52A3DB" offset="100%"></stop>
        </linearGradient>
        <linearGradient x1="0%" y1="50%" x2="183.555899%" y2="50%" id="linearGradient-2">
            <stop stop-color="#F59D2A" offset="0%"></stop>
            <stop stop-color="#F59A2C" offset="1%"></stop>
            <stop stop-color="#EE6A4B" offset="21%"></stop>
            <stop stop-color="#EA4D5F" offset="36%"></stop>
            <stop stop-color="#E94266" offset="45%"></stop>
            <stop stop-color="#D54F76" offset="54%"></stop>
            <stop stop-color="#A0719F" offset="74%"></stop>
            <stop stop-color="#52A3DB" offset="100%"></stop>
        </linearGradient>
    </defs>
    <g id="Custom-Preset" stroke="none" stroke-width="1" fill="none" fill-rule="evenodd">
        <g id="Group" transform="translate(20.000000, 19.000000)">
            <path d="M345.711907,185.953203 L345.711907,130.649668 L409.242825,130.649668 L409.242825,149.259747 L359.313152,149.259747 L359.313152,185.953203 L345.711907,185.953203 Z M345.711907,81.4653477 L345.711907,78.0438675 L409.242825,78.0438675 L409.242825,96.9280012 L359.313152,96.9280012 L345.711907,81.4653477 Z M475.145406,167.86656 L466.738303,185.953203 L448.442753,185.953203 L497.884985,78.0438675 L530.897775,150.066099 L512.352129,150.066099 L497.884985,118.376317 L483.302413,150.066099 L475.145406,167.86656 Z M547.118435,185.953203 L528.384219,185.953203 L520.084002,167.069069 L538.700762,167.069069 L547.118435,185.953203 Z M622.335524,147.242759 L641.738952,185.953203 L623.642586,185.953203 L596.194284,131.865422 L610.277417,131.998972 C614.530023,132.025452 618.575201,130.097023 621.323011,126.733283 C624.471929,123.282595 626.173163,118.679375 626.054208,113.931554 C626.151915,109.261236 624.44918,104.743216 621.323011,101.377847 C618.575201,98.0141076 614.530023,96.0856782 610.277417,96.1121585 L578.687017,96.1121585 L576.846084,94.0898288 L568.745982,78.0438675 L610.277417,78.0438675 C618.81961,77.9969308 626.950801,81.8406095 632.51588,88.5570399 C638.594115,95.489278 641.88686,104.566395 641.720542,113.931554 C641.851711,121.132427 639.930635,128.213452 636.197745,134.288402 C632.956055,139.967305 628.120172,144.486477 622.335524,147.242759 Z M721.15875,167.86656 L712.751646,185.953203 L694.456097,185.953203 L743.898329,78.0438675 L776.911118,150.066099 L758.365472,150.066099 L743.898329,118.376317 L729.315756,150.066099 L721.15875,167.86656 Z M791.780057,185.953203 L773.04584,185.953203 L764.745623,167.069069 L783.362384,167.069069 L791.780057,185.953203 Z M920.187937,132.046034 C920.259924,139.158187 918.908812,146.217512 916.207905,152.841002 C913.588118,159.130051 909.866145,164.94257 905.203116,170.026926 C900.598652,174.890932 895.040024,178.836169 888.845184,181.636972 C882.637851,184.502668 875.833361,185.978299 868.945023,185.953203 L835.03515,185.953203 L852.049787,167.850042 L869.044524,167.850042 C873.624514,167.867696 878.155982,166.94988 882.337831,165.157581 C886.48057,163.290008 890.178954,160.625132 893.203319,157.328438 C896.305844,153.940452 898.776475,150.064602 900.506678,145.871155 C904.056306,136.940326 904.042131,127.065943 900.466878,118.144531 C898.744294,113.921677 896.228329,110.0382 893.044118,106.687249 C889.978019,103.434133 886.289393,100.776289 882.17863,98.8581057 C878.034816,97.0756201 873.545852,96.1516664 869.004724,96.1465488 L852.009987,96.1465488 L835.03515,78.0438675 L869.044524,78.0438675 C875.931423,78.0308282 882.733032,79.5058345 888.944685,82.3596188 C895.081854,85.1969559 900.594424,89.1382728 905.183216,93.9696651 C909.934465,99.0482971 913.701736,104.900743 916.307405,111.251066 C918.974333,117.880965 920.291628,124.940081 920.187937,132.046034 Z M986.096196,167.86656 L977.689093,185.953203 L959.393543,185.953203 L1008.83578,78.0438675 L1041.84857,150.066099 L1023.30292,150.066099 L1008.83578,118.376317 L994.253203,150.066099 L986.096196,167.86656 Z M1058.06923,185.953203 L1039.3621,185.953203 L1031.03479,167.069069 L1049.62463,167.069069 L1058.06923,185.953203 Z M1150.72976,146.72732 L1150.72976,146.593769 L1122.56982,185.953203 L1101.32432,185.953203 L1140.28084,131.998535 L1101.34363,78.0438675 L1122.58913,78.0438675 L1150.74907,117.42238 L1179.0249,78.0438675 L1200,78.0438675 L1161.37182,131.998535 L1150.72976,146.72732 Z M1149.9863,146.987685 L1121.60014,185.953203 L1149.9863,146.836069 L1149.9863,146.987685 Z" id="Shape" fill="url(#linearGradient-1)" fill-rule="nonzero"></path>
            <path d="M126.085885,259.671354 L62.1555891,196.228083 L129.023404,129.824126 L195.924855,196.228083 L132.016984,259.671354 C131.230558,260.452312 130.163785,260.89107 129.051434,260.89107 C127.939083,260.89107 126.87231,260.452312 126.085885,259.671354 Z M1.18617949,134.865638 C0.416659626,134.073078 -0.00984556455,133.003843 0.000172577645,131.893267 C0.0109185487,130.782692 0.457336942,129.721798 1.24153626,128.944087 L127.510327,1.33410005 C128.285004,0.549370018 129.33657,0.108388479 130.433165,0.108388479 C131.529759,0.108388479 132.581326,0.549370018 133.356002,1.33410005 L259.569436,128.944087 C260.346251,129.729247 260.782681,130.794302 260.782681,131.904862 C260.782681,133.015423 260.346251,134.080478 259.569436,134.865638 L211.11012,183.861156 L130.388879,102.246734 L49.6565668,183.87235 L1.18617949,134.865638 L1.18617949,134.865638 Z" id="Shape" fill="url(#linearGradient-2)"></path>
        </g>
    </g>
</svg>